<svg width="1480" height="211" viewBox="0 0 1480 211" fill="none" xmlns="http://www.w3.org/2000/svg">
<g clip-path="url(#clip0)">
<rect width="1480" height="211" fill="white"/>
<g clip-path="url(#clip1)">
<rect x="-592" y="-172" width="2774" height="713" rx="32" fill="white"/>
<path d="M2511.86 -605.454L2373.32 -433.957C2234.78 -262.46 1957.69 80.5338 1680.61 175.929C1403.52 269.895 1126.43 119.835 849.348 61.5977C572.262 5.50393 295.177 41.2325 18.0907 80.5338C-258.995 119.835 -536.081 155.564 -813.167 175.929C-1090.25 194.865 -1367.34 194.865 -1505.88 194.865H-1644.42V537.859H-1505.88C-1367.34 537.859 -1090.25 537.859 -813.167 537.859C-536.081 537.859 -258.995 537.859 18.0907 537.859C295.177 537.859 572.262 537.859 849.348 537.859C1126.43 537.859 1403.52 537.859 1680.61 537.859C1957.69 537.859 2234.78 537.859 2373.32 537.859H2511.86V-605.454Z" fill="#033D80"/>
<path d="M2511.86 -605.454L2373.32 -433.957C2234.78 -262.46 1957.69 80.5338 1680.61 175.929C1403.52 269.895 1126.43 119.835 849.348 61.5977C572.262 5.50393 295.177 41.2325 18.0907 80.5338C-258.995 119.835 -536.081 155.564 -813.167 175.929C-1090.25 194.865 -1367.34 194.865 -1505.88 194.865H-1644.42V537.859H-1505.88C-1367.34 537.859 -1090.25 537.859 -813.167 537.859C-536.081 537.859 -258.995 537.859 18.0907 537.859C295.177 537.859 572.262 537.859 849.348 537.859C1126.43 537.859 1403.52 537.859 1680.61 537.859C1957.69 537.859 2234.78 537.859 2373.32 537.859H2511.86V-605.454Z" fill="url(#paint0_linear)"/>
<path fill-rule="evenodd" clip-rule="evenodd" d="M-2005.7 268.486L-2156.5 346.26V930.48H-2005.7H-1251.73H-346.958H557.812H1462.58H2216.56H2367.35V229.416L2216.56 307.19C2093.49 371.857 1869.98 485.895 1628 494.48V547H188V211H866.546C763.635 158.37 660.723 113.529 557.812 93.2196C382.744 59.9425 207.676 97.6577 32.6084 135.373C-93.9138 162.63 -220.436 189.887 -346.958 190.346C-497.753 189.799 -648.548 151.185 -799.343 112.572C-950.138 73.9586 -1100.93 35.3453 -1251.73 34.7976C-1553.32 35.8931 -1854.91 189.251 -2005.7 268.486Z" fill="#0077FF"/>
<path fill-rule="evenodd" clip-rule="evenodd" d="M-2005.7 122.501L-2156.5 44.7268V-539.493H-2005.7H-1251.73H-346.958H557.812H1462.58H2216.56H2367.35V161.571L2216.56 83.7965C2065.76 4.56165 1764.17 -148.796 1462.58 -91.4695C1311.79 -61.7108 1160.99 20.719 1010.2 103.149C941.377 140.768 872.557 178.387 803.738 211H188V287.251C136.203 277.931 84.4055 266.773 32.6084 255.614C-93.9138 228.357 -220.436 201.1 -346.958 200.641C-497.753 201.188 -648.548 239.802 -799.344 278.415C-950.138 317.028 -1100.93 355.641 -1251.73 356.189C-1553.32 355.094 -1854.91 201.736 -2005.7 122.501Z" fill="#DA3654"/>
<path fill-rule="evenodd" clip-rule="evenodd" d="M-2005.7 122.501L-2156.5 44.7268V-539.493H-2005.7H-1251.73H-346.958H557.812H1462.58H2216.56H2367.35V161.571L2216.56 83.7965C2065.76 4.56165 1764.17 -148.796 1462.58 -91.4695C1311.79 -61.7108 1160.99 20.719 1010.2 103.149C941.377 140.768 872.557 178.387 803.738 211H188V287.251C136.203 277.931 84.4055 266.773 32.6084 255.614C-93.9138 228.357 -220.436 201.1 -346.958 200.641C-497.753 201.188 -648.548 239.802 -799.344 278.415C-950.138 317.028 -1100.93 355.641 -1251.73 356.189C-1553.32 355.094 -1854.91 201.736 -2005.7 122.501Z" fill="url(#paint1_linear)"/>
<path fill-rule="evenodd" clip-rule="evenodd" d="M1628 326.006C1994.46 285.169 2279.39 -25.5778 2279.39 -402.861C2279.39 -807.916 1950.97 -1136.28 1545.83 -1136.28C1140.7 -1136.28 812.279 -807.916 812.279 -402.861C812.279 -146.015 944.334 79.9946 1144.27 211H1628V326.006Z" fill="#DA3654"/>
<path fill-rule="evenodd" clip-rule="evenodd" d="M1628 326.006C1994.46 285.169 2279.39 -25.5778 2279.39 -402.861C2279.39 -807.916 1950.97 -1136.28 1545.83 -1136.28C1140.7 -1136.28 812.279 -807.916 812.279 -402.861C812.279 -146.015 944.334 79.9946 1144.27 211H1628V326.006Z" fill="url(#paint2_linear)"/>
<ellipse cx="248.787" cy="-409.143" rx="516.787" ry="516.689" fill="url(#paint3_linear)"/>
</g>
</g>
<defs>
<linearGradient id="paint0_linear" x1="928.516" y1="332.126" x2="948.928" y2="723.177" gradientUnits="userSpaceOnUse">
<stop stop-color="#00C3FF"/>
<stop offset="1" stop-color="#040102" stop-opacity="0.31"/>
</linearGradient>
<linearGradient id="paint1_linear" x1="165.117" y1="-90.3349" x2="292.303" y2="712.19" gradientUnits="userSpaceOnUse">
<stop stop-color="#0077FF"/>
<stop offset="1" stop-color="#2E393E" stop-opacity="0.68"/>
</linearGradient>
<linearGradient id="paint2_linear" x1="1506.56" y1="151.52" x2="1547.39" y2="-541.065" gradientUnits="userSpaceOnUse">
<stop stop-color="#0077FF"/>
<stop offset="1" stop-color="#520F1B" stop-opacity="0.99"/>
</linearGradient>
<linearGradient id="paint3_linear" x1="496.971" y1="-132.738" x2="624.393" y2="573.777" gradientUnits="userSpaceOnUse">
<stop stop-color="#00C2FE"/>
<stop offset="1" stop-color="#020000" stop-opacity="0.26"/>
</linearGradient>
<clipPath id="clip0">
<rect width="1480" height="211" fill="white"/>
</clipPath>
<clipPath id="clip1">
<rect x="-592" y="-172" width="2774" height="713" rx="32" fill="white"/>
</clipPath>
</defs>
</svg>
