<svg width="86" height="86" viewBox="0 0 86 86" fill="none" xmlns="http://www.w3.org/2000/svg">
<path d="M35.2986 39.4979C36.0293 38.9688 36.382 38.0953 36.382 36.8943C36.4072 36.3232 36.2896 35.7605 36.0377 35.2482C35.8109 34.8367 35.475 34.4924 35.0635 34.2488C34.6368 33.9901 34.1629 33.8188 33.6693 33.7449C33.1318 33.6441 32.5859 33.5938 32.0484 33.6021H26.1443V40.2957H32.5355C33.6357 40.3041 34.568 40.0354 35.2986 39.4979ZM36.2896 45.5447C35.4666 44.9148 34.3664 44.6041 32.9975 44.6041H26.1275V52.4986H32.8631C33.493 52.4986 34.0725 52.4398 34.6352 52.3223C35.1675 52.2182 35.675 52.0129 36.1301 51.7176C36.5584 51.4404 36.9027 51.0625 37.1631 50.5754C37.415 50.0883 37.541 49.4668 37.541 48.7193C37.541 47.2328 37.1211 46.183 36.2896 45.5447ZM43 5.375C22.2223 5.375 5.375 22.2223 5.375 43C5.375 63.7777 22.2223 80.625 43 80.625C63.7777 80.625 80.625 63.7777 80.625 43C80.625 22.2223 63.7777 5.375 43 5.375ZM50.2646 29.4701H61.8881V32.3004H50.2646V29.4701ZM43 52.8094C42.4563 53.8414 41.68 54.7327 40.7324 55.4129C39.7414 56.1016 38.6412 56.6055 37.4738 56.8994C36.2525 57.2267 34.9925 57.3877 33.7281 57.3781H19.8203V28.7311H33.3418C34.7107 28.7311 35.9537 28.857 37.0875 29.0922C38.2129 29.3273 39.1703 29.7305 39.9766 30.2764C40.7744 30.8223 41.4043 31.5529 41.8494 32.46C42.2861 33.3586 42.5129 34.484 42.5129 35.8193C42.5129 37.2639 42.1854 38.4564 41.5303 39.4223C40.8668 40.3881 39.9094 41.1691 38.6076 41.7822C40.3797 42.2861 41.6814 43.1848 42.5381 44.4445C43.4115 45.7211 43.8398 47.2496 43.8398 49.0469C43.8398 50.5082 43.5627 51.7596 43 52.8094ZM66.4148 48.375H51.432C51.432 50.0043 51.9947 51.5664 52.843 52.4062C53.6996 53.2377 54.9258 53.6576 56.5299 53.6576C57.6889 53.6576 58.6715 53.3637 59.5113 52.7842C60.3428 52.2047 60.8467 51.5916 61.0314 50.9533H66.0537C65.2475 53.4477 64.0213 55.2281 62.3584 56.3031C60.7123 57.3781 58.6967 57.9156 56.3535 57.9156C54.7158 57.9156 53.2461 57.6469 51.9275 57.1346C50.6594 56.6391 49.5172 55.8832 48.5766 54.909C47.6491 53.9085 46.9323 52.7318 46.4686 51.4488C45.9562 50.0295 45.7043 48.5346 45.7211 47.0312C45.7211 45.4775 45.9814 44.033 46.4854 42.6893C47.4512 40.0773 49.4584 37.9861 52.0199 36.9027C53.3889 36.3316 54.8586 36.0461 56.3451 36.0629C58.1088 36.0629 59.6373 36.3988 60.9643 37.0875C62.2417 37.7451 63.3509 38.6876 64.2061 39.8422C65.0543 40.9928 65.6506 42.3029 66.0285 43.7811C66.3896 45.234 66.5156 46.7625 66.4148 48.375ZM56.1688 40.3461C55.2617 40.3461 54.4975 40.5057 53.9096 40.8164C53.3217 41.1271 52.8346 41.5135 52.465 41.9586C52.1131 42.3884 51.853 42.8857 51.7008 43.4199C51.5664 43.865 51.474 44.3186 51.4404 44.7805H60.7207C60.5863 43.3275 60.0824 42.2525 59.4105 41.4967C58.7051 40.7492 57.5713 40.3461 56.1688 40.3461Z" fill="white"/>
</svg>
